<svg xmlns="http://www.w3.org/2000/svg" fill="none" viewBox="0 0 79 72"><g filter="url(#a)"><path fill="url(#b)" fill-rule="evenodd" d="M8.791 9.5c0-1.564 1.25-2.833 2.792-2.833h55.833c1.542 0 2.792 1.269 2.792 2.833V52c0 1.565-1.25 2.834-2.792 2.834H38.763l-13.37 6.784a2.756 2.756 0 0 1-2.716-.124 2.843 2.843 0 0 1-1.323-2.41v-4.25h-9.771c-1.542 0-2.792-1.269-2.792-2.834V9.5Zm5.583 2.834v36.833h9.771c1.542 0 2.792 1.268 2.792 2.833v2.5l9.918-5.034c.388-.197.815-.299 1.248-.299h26.521V12.334h-50.25Zm11.167 13.458c1.542 0 2.792 1.268 2.792 2.833v4.25c0 1.565-1.25 2.834-2.792 2.834-1.542 0-2.792-1.269-2.792-2.834v-4.25c0-1.564 1.25-2.833 2.792-2.833Zm13.958 0c1.542 0 2.792 1.268 2.792 2.833v4.25c0 1.565-1.25 2.834-2.792 2.834-1.541 0-2.791-1.269-2.791-2.834v-4.25c0-1.564 1.25-2.833 2.791-2.833Zm13.959 0c1.541 0 2.791 1.268 2.791 2.833v4.25c0 1.565-1.25 2.834-2.791 2.834-1.542 0-2.792-1.269-2.792-2.834v-4.25c0-1.564 1.25-2.833 2.792-2.833Z" clip-rule="evenodd"/><path stroke="#FFF8F4" stroke-linecap="round" stroke-linejoin="round" stroke-miterlimit="10" d="M38.763 54.334a.5.5 0 0 0-.227.054l-13.369 6.784c-.708.36-1.55.321-2.224-.102a2.343 2.343 0 0 1-1.09-1.986v-4.25a.5.5 0 0 0-.5-.5h-9.77c-1.259 0-2.292-1.038-2.292-2.334V9.5c0-1.295 1.033-2.333 2.292-2.333h55.833c1.259 0 2.292 1.038 2.292 2.333V52c0 1.296-1.033 2.334-2.292 2.334H38.763Zm-24.389-42.5a.5.5 0 0 0-.5.5v36.833a.5.5 0 0 0 .5.5h9.771c1.259 0 2.292 1.038 2.292 2.333v2.5a.5.5 0 0 0 .726.445l9.918-5.033a2.257 2.257 0 0 1 1.022-.245h26.521a.5.5 0 0 0 .5-.5V12.334a.5.5 0 0 0-.5-.5h-50.25Zm11.167 14.458c1.259 0 2.292 1.038 2.292 2.333v4.25c0 1.296-1.033 2.334-2.292 2.334s-2.292-1.038-2.292-2.334v-4.25c0-1.295 1.033-2.333 2.292-2.333Zm13.958 0c1.259 0 2.292 1.038 2.292 2.333v4.25c0 1.296-1.033 2.334-2.292 2.334-1.258 0-2.291-1.038-2.291-2.334v-4.25c0-1.295 1.033-2.333 2.291-2.333Zm13.959 0c1.258 0 2.291 1.038 2.291 2.333v4.25c0 1.296-1.033 2.334-2.291 2.334-1.259 0-2.292-1.038-2.292-2.334v-4.25c0-1.295 1.033-2.333 2.292-2.333Z"/></g><defs><linearGradient id="b" x1="39.499" x2="39.499" y1="6.667" y2="61.917" gradientUnits="userSpaceOnUse"><stop stop-color="#F1E5DF"/><stop offset="1" stop-color="#FFF0EA"/></linearGradient><filter id="a" width="77.416" height="71.25" x=".791" y=".667" color-interpolation-filters="sRGB" filterUnits="userSpaceOnUse"><feFlood flood-opacity="0" result="BackgroundImageFix"/><feColorMatrix in="SourceAlpha" result="hardAlpha" values="0 0 0 0 0 0 0 0 0 0 0 0 0 0 0 0 0 0 127 0"/><feOffset dy="2"/><feGaussianBlur stdDeviation="4"/><feComposite in2="hardAlpha" operator="out"/><feColorMatrix values="0 0 0 0 0.938889 0 0 0 0 0.465728 0 0 0 0 0.246458 0 0 0 1 0"/><feBlend in2="BackgroundImageFix" result="effect1_dropShadow_182_81"/><feBlend in="SourceGraphic" in2="effect1_dropShadow_182_81" result="shape"/></filter></defs></svg>