<svg xmlns="http://www.w3.org/2000/svg" fill="none" viewBox="0 0 67 80"><g filter="url(#a)"><path fill="url(#b)" d="M32.02 20.27c.374-1.517-.535-3.055-2.031-3.435-1.496-.38-3.012.543-3.385 2.061L23.812 30.23c-.374 1.518.535 3.056 2.031 3.436 1.496.38 3.012-.544 3.386-2.062l2.791-11.333Z"/><path fill="url(#c)" fill-rule="evenodd" d="M22.333 6.833a2.8 2.8 0 0 0-2.702 2.118l-8.375 32.584a2.867 2.867 0 0 0 .493 2.447 2.777 2.777 0 0 0 2.209 1.101H21.6l-4.776 20.601a2.848 2.848 0 0 0 1.404 3.15 2.762 2.762 0 0 0 3.359-.573l36.291-39.667a2.866 2.866 0 0 0 .514-3.06 2.79 2.79 0 0 0-2.56-1.701H42.659l3.32-13.48a2.866 2.866 0 0 0-.507-2.43 2.777 2.777 0 0 0-2.2-1.09H22.332ZM17.57 39.416 24.49 12.5h15.206l-3.32 13.48a2.866 2.866 0 0 0 .507 2.43 2.777 2.777 0 0 0 2.2 1.09h10.349L24.675 56.557 27.842 42.9c.195-.843 0-1.73-.53-2.409a2.777 2.777 0 0 0-2.188-1.074h-7.553Z" clip-rule="evenodd"/><path stroke="#F4F9FF" stroke-linecap="round" stroke-miterlimit="10" d="m22.087 45.196.142-.613h-8.271a2.277 2.277 0 0 1-1.812-.904 2.367 2.367 0 0 1-.405-2.02l8.375-32.583a2.3 2.3 0 0 1 2.217-1.743H43.27c.703 0 1.369.329 1.804.895l.397-.305-.397.305c.436.566.591 1.306.419 2.006l-3.32 13.48-.153.619h13.813a2.29 2.29 0 0 1 2.1 1.398c.366.854.199 1.846-.423 2.526L21.218 67.923a2.262 2.262 0 0 1-2.752.47 2.348 2.348 0 0 1-1.155-2.596l4.776-20.601Zm-5-5.904-.16.624h8.197c.698 0 1.359.324 1.795.882.436.559.597 1.291.436 1.988l-3.167 13.658-.43 1.857 1.286-1.406L49.8 29.837l.766-.837H39.083a2.277 2.277 0 0 1-1.804-.895 2.366 2.366 0 0 1-.42-2.006l3.321-13.48.153-.62H24.102l-.097.376-6.918 26.917ZM29.866 17.32c1.224.31 1.978 1.574 1.669 2.831l-2.792 11.334c-.309 1.254-1.556 2.006-2.777 1.696-1.223-.31-1.978-1.574-1.669-2.832l2.792-11.333c.31-1.255 1.556-2.006 2.777-1.696Z"/></g><defs><linearGradient id="b" x1="34.895" x2="34.895" y1="6.833" y2="69.166" gradientUnits="userSpaceOnUse"><stop stop-color="#DFE6F1"/><stop offset="1" stop-color="#EAF2FF"/></linearGradient><linearGradient id="c" x1="34.895" x2="34.895" y1="6.833" y2="69.166" gradientUnits="userSpaceOnUse"><stop stop-color="#DFE6F1"/><stop offset="1" stop-color="#EAF2FF"/></linearGradient><filter id="a" width="63.459" height="78.333" x="3.166" y=".833" color-interpolation-filters="sRGB" filterUnits="userSpaceOnUse"><feFlood flood-opacity="0" result="BackgroundImageFix"/><feColorMatrix in="SourceAlpha" result="hardAlpha" values="0 0 0 0 0 0 0 0 0 0 0 0 0 0 0 0 0 0 127 0"/><feOffset dy="2"/><feGaussianBlur stdDeviation="4"/><feComposite in2="hardAlpha" operator="out"/><feColorMatrix values="0 0 0 0 0.128872 0 0 0 0 0.793056 0 0 0 0 0.514098 0 0 0 1 0"/><feBlend in2="BackgroundImageFix" result="effect1_dropShadow_182_84"/><feBlend in="SourceGraphic" in2="effect1_dropShadow_182_84" result="shape"/></filter></defs></svg>