<svg xmlns="http://www.w3.org/2000/svg" fill="none" viewBox="0 0 153 47"><path fill="#6B6B6B" d="M146.87 46.653H6.13c-3.153 0-5.63-2.53-5.63-5.75v-34.5c0-3.22 2.477-5.75 5.63-5.75h140.74c3.153 0 5.63 2.53 5.63 5.75v34.5c0 3.22-2.477 5.75-5.63 5.75Z"/><path fill="url(#a)" d="M146.87 1.573c2.59 0 4.729 2.185 4.729 4.83v34.5c0 2.645-2.139 4.83-4.729 4.83H6.13c-2.59 0-4.73-2.185-4.73-4.83v-34.5c0-2.645 2.14-4.83 4.73-4.83h140.74Zm0-.92H6.13C2.977.653.5 3.298.5 6.403v34.5c0 3.22 2.477 5.75 5.63 5.75h140.74c3.153 0 5.63-2.53 5.63-5.75v-34.5c0-3.105-2.477-5.75-5.63-5.75Z"/><path fill="#fff" stroke="#fff" stroke-miterlimit="10" stroke-width=".5" d="M53.869 12.384c0 .92-.225 1.725-.788 2.3-.676.69-1.464 1.035-2.477 1.035-1.014 0-1.802-.345-2.477-1.035-.676-.69-1.014-1.495-1.014-2.53 0-1.035.338-1.84 1.014-2.53.675-.69 1.463-1.035 2.477-1.035.45 0 .9.115 1.35.345.451.23.789.46 1.014.805l-.563.575c-.45-.575-1.013-.805-1.801-.805-.676 0-1.352.23-1.802.805-.563.46-.788 1.15-.788 1.955 0 .805.225 1.495.788 1.955.563.46 1.126.805 1.802.805.788 0 1.35-.23 1.914-.805.337-.345.563-.805.563-1.38h-2.477v-.92h3.265v.46Zm5.18-2.875h-3.04v2.185h2.814v.805h-2.815v2.185h3.04v.92h-3.94v-6.9h3.94v.805Zm3.715 6.095h-.901V9.509h-1.914v-.805h4.729v.805h-1.914v6.095Zm5.179 0v-6.9h.9v6.9h-.9Zm4.616 0h-.788V9.509h-1.914v-.805h4.616v.805H72.56v6.095Zm10.81-.92c-.677.69-1.465 1.035-2.478 1.035-1.013 0-1.801-.345-2.477-1.035-.675-.69-1.013-1.495-1.013-2.53 0-1.035.338-1.84 1.013-2.53.676-.69 1.464-1.035 2.477-1.035s1.801.345 2.477 1.035c.676.69 1.013 1.495 1.013 2.53 0 1.035-.337 1.84-1.013 2.53Zm-4.28-.575c.45.46 1.127.805 1.802.805.676 0 1.351-.23 1.801-.805.45-.46.789-1.15.789-1.955 0-.805-.225-1.495-.788-1.955-.45-.46-1.126-.805-1.802-.805-.675 0-1.351.23-1.801.805-.45.46-.789 1.15-.789 1.955 0 .805.226 1.495.789 1.955Zm6.53 1.495v-6.9h1.014l3.266 5.405V8.704h.9v6.9h-.9l-3.49-5.635v5.635h-.79Z"/><path fill="#fff" d="M77.175 25.724c-2.702 0-4.841 2.07-4.841 4.945 0 2.76 2.14 4.945 4.841 4.945 2.703 0 4.842-2.07 4.842-4.945 0-2.99-2.14-4.945-4.842-4.945Zm0 7.82c-1.463 0-2.702-1.265-2.702-2.99 0-1.725 1.239-2.99 2.702-2.99 1.464 0 2.703 1.15 2.703 2.99 0 1.725-1.239 2.99-2.703 2.99Zm-10.47-7.82c-2.703 0-4.842 2.07-4.842 4.945 0 2.76 2.14 4.945 4.841 4.945 2.703 0 4.842-2.07 4.842-4.945 0-2.99-2.14-4.945-4.842-4.945Zm0 7.82c-1.464 0-2.703-1.265-2.703-2.99 0-1.725 1.239-2.99 2.702-2.99 1.464 0 2.703 1.15 2.703 2.99 0 1.725-1.239 2.99-2.703 2.99ZM54.206 27.22v2.07h4.841c-.113 1.15-.563 2.07-1.126 2.645-.675.69-1.801 1.495-3.715 1.495-3.04 0-5.292-2.415-5.292-5.52 0-3.105 2.364-5.52 5.291-5.52 1.577 0 2.815.69 3.716 1.495l1.464-1.495c-1.239-1.15-2.815-2.07-5.067-2.07-4.053 0-7.544 3.45-7.544 7.59s3.49 7.59 7.544 7.59c2.252 0 3.828-.69 5.18-2.185 1.35-1.38 1.8-3.335 1.8-4.83 0-.46 0-.92-.112-1.265h-6.98Zm51.117 1.61c-.451-1.15-1.577-3.105-4.054-3.105-2.477 0-4.504 1.955-4.504 4.945 0 2.76 2.027 4.945 4.729 4.945 2.14 0 3.491-1.38 3.941-2.185l-1.576-1.15c-.563.805-1.239 1.38-2.365 1.38-1.126 0-1.801-.46-2.364-1.495l6.418-2.76-.225-.575Zm-6.53 1.61c0-1.84 1.463-2.875 2.476-2.875.788 0 1.577.46 1.802 1.035l-4.279 1.84ZM93.5 35.154h2.14V20.78H93.5v14.375Zm-3.377-8.395c-.563-.575-1.464-1.15-2.59-1.15-2.365 0-4.616 2.185-4.616 4.945 0 2.76 2.139 4.83 4.616 4.83 1.126 0 2.027-.575 2.477-1.15h.113v.69c0 1.84-1.014 2.875-2.59 2.875-1.239 0-2.14-.92-2.365-1.725l-1.801.805c.563 1.265 1.914 2.875 4.279 2.875 2.477 0 4.503-1.495 4.503-5.06v-8.74h-2.026v.805Zm-2.477 6.785c-1.464 0-2.703-1.265-2.703-2.99 0-1.725 1.239-2.99 2.703-2.99 1.463 0 2.59 1.265 2.59 2.99 0 1.725-1.127 2.99-2.59 2.99Zm27.472-12.765h-5.067v14.375h2.14V29.75h2.927c2.365 0 4.616-1.725 4.616-4.485 0-2.76-2.251-4.485-4.616-4.485Zm.113 6.9h-3.04v-4.945h3.04c1.576 0 2.477 1.38 2.477 2.415-.113 1.265-1.014 2.53-2.477 2.53Zm12.948-2.07c-1.576 0-3.153.69-3.716 2.185l1.914.805c.451-.805 1.126-1.035 1.914-1.035 1.126 0 2.14.69 2.252 1.84v.115c-.337-.23-1.238-.575-2.139-.575-2.027 0-4.053 1.15-4.053 3.22 0 1.955 1.689 3.22 3.49 3.22 1.464 0 2.139-.69 2.702-1.38h.113v1.15h2.027v-5.52c-.226-2.53-2.14-4.025-4.504-4.025Zm-.225 7.935c-.676 0-1.689-.345-1.689-1.265 0-1.15 1.238-1.495 2.252-1.495.9 0 1.351.23 1.914.46-.225 1.38-1.351 2.3-2.477 2.3Zm11.822-7.59-2.365 6.21h-.112l-2.477-6.21h-2.252l3.715 8.74-2.139 4.83h2.139l5.743-13.57h-2.252Zm-18.916 9.2h2.14V20.78h-2.14v14.375Z"/><path fill="url(#b)" d="M12.21 9.28c-.338.344-.45.92-.45 1.61v25.414c0 .69.225 1.265.563 1.61l.112.115 13.962-14.26v-.23L12.21 9.28Z"/><path fill="url(#c)" d="m30.901 28.6-4.616-4.716v-.345l4.616-4.715.113.115 5.517 3.22c1.576.92 1.576 2.415 0 3.335l-5.63 3.105Z"/><path fill="url(#d)" d="m31.012 28.483-4.729-4.83L12.21 38.028c.563.575 1.351.575 2.364.115l16.439-9.66Z"/><path fill="url(#e)" d="M31.012 18.823 14.573 9.278c-1.013-.575-1.801-.46-2.364.115l14.074 14.26 4.729-4.83Z"/><path fill="#000" d="M30.9 28.37 14.572 37.8c-.9.575-1.689.46-2.251 0l-.113.115.113.115c.563.46 1.35.575 2.251 0L30.9 28.37Z" opacity=".2"/><path fill="#000" d="M12.21 37.798c-.338-.345-.45-.92-.45-1.61v.115c0 .69.225 1.265.563 1.61v-.115h-.113Zm24.32-12.65-5.63 3.22.113.115 5.517-3.22c.788-.46 1.126-1.035 1.126-1.61 0 .575-.45 1.035-1.126 1.495Z" opacity=".12"/><path fill="#fff" d="M14.575 9.394 36.53 22.159c.676.46 1.126.92 1.126 1.495 0-.575-.338-1.15-1.126-1.61L14.575 9.279c-1.577-.92-2.815-.23-2.815 1.61v.115c0-1.725 1.238-2.53 2.815-1.61Z" opacity=".25"/><defs><linearGradient id="a" x1="8.1" x2="81.229" y1="4.399" y2="94.411" gradientUnits="userSpaceOnUse"><stop stop-color="#fff" stop-opacity=".6"/><stop offset="1" stop-color="#fff" stop-opacity=".1"/></linearGradient><linearGradient id="b" x1="25.046" x2="5.75" y1="10.671" y2="29.562" gradientUnits="userSpaceOnUse"><stop stop-color="#00A0FF"/><stop offset=".007" stop-color="#00A1FF"/><stop offset=".26" stop-color="#00BEFF"/><stop offset=".512" stop-color="#00D2FF"/><stop offset=".76" stop-color="#00DFFF"/><stop offset="1" stop-color="#00E3FF"/></linearGradient><linearGradient id="c" x1="38.596" x2="11.352" y1="23.655" y2="23.655" gradientUnits="userSpaceOnUse"><stop stop-color="#FFE000"/><stop offset=".409" stop-color="#FFBD00"/><stop offset=".775" stop-color="orange"/><stop offset="1" stop-color="#FF9C00"/></linearGradient><linearGradient id="d" x1="28.453" x2="2.287" y1="26.294" y2="51.912" gradientUnits="userSpaceOnUse"><stop stop-color="#FF3A44"/><stop offset="1" stop-color="#C31162"/></linearGradient><linearGradient id="e" x1="8.715" x2="20.4" y1=".856" y2="12.296" gradientUnits="userSpaceOnUse"><stop stop-color="#32A071"/><stop offset=".069" stop-color="#2DA771"/><stop offset=".476" stop-color="#15CF74"/><stop offset=".801" stop-color="#06E775"/><stop offset="1" stop-color="#00F076"/></linearGradient></defs></svg>