<svg xmlns="http://www.w3.org/2000/svg" fill="none" viewBox="0 0 79 76"><g filter="url(#a)"><path fill="url(#b)" fill-rule="evenodd" d="M39.49 6.25a2.788 2.788 0 0 1 2.508 1.574l7.994 16.346 17.827 2.639a2.803 2.803 0 0 1 2.251 1.925 2.863 2.863 0 0 1-.7 2.903L56.402 44.525l3.079 17.904a2.853 2.853 0 0 1-1.113 2.782 2.757 2.757 0 0 1-2.95.206l-15.921-8.612-15.918 8.612c-.942.51-2.088.43-2.952-.207a2.854 2.854 0 0 1-1.11-2.784l3.1-17.9L9.632 31.637a2.863 2.863 0 0 1-.703-2.904 2.803 2.803 0 0 1 2.254-1.926l17.924-2.637L36.99 7.837a2.788 2.788 0 0 1 2.5-1.587Zm.024 9.24-6.042 12.516a2.795 2.795 0 0 1-2.107 1.558l-13.792 2.03 10.002 9.924a2.86 2.86 0 0 1 .798 2.517l-2.364 13.647 12.175-6.588a2.756 2.756 0 0 1 2.627 0l12.187 6.593L50.65 44.03a2.86 2.86 0 0 1 .797-2.511l9.989-9.93-13.697-2.026a2.795 2.795 0 0 1-2.098-1.544l-6.127-12.53Z" clip-rule="evenodd"/><path stroke="#FBF4FF" stroke-miterlimit="10" d="m49.543 24.39.115.236.26.04 17.828 2.637a2.303 2.303 0 0 1 1.848 1.584 2.363 2.363 0 0 1-.577 2.395L56.05 44.171l-.184.183.044.256 3.079 17.904a2.353 2.353 0 0 1-.916 2.294 2.257 2.257 0 0 1-2.417.17l-15.92-8.613-.238-.129-.238.129-15.918 8.612.238.44-.238-.44a2.258 2.258 0 0 1-2.418-.17 2.353 2.353 0 0 1-.914-2.296l3.101-17.9.045-.257-.185-.184L9.983 31.283a2.363 2.363 0 0 1-.578-2.396 2.303 2.303 0 0 1 1.85-1.584l17.924-2.638.262-.038.115-.24 7.885-16.333a2.288 2.288 0 0 1 2.05-1.304 2.288 2.288 0 0 1 2.058 1.293l7.994 16.347Zm-9.58-9.12-.452-.924-.448.926-6.042 12.517a2.295 2.295 0 0 1-1.728 1.28L17.5 31.1l-.989.146.71.704 10.002 9.924a2.36 2.36 0 0 1 .657 2.076l-2.364 13.647-.176 1.016.906-.49 12.176-6.589a2.256 2.256 0 0 1 2.15 0l12.188 6.593.905.49-.174-1.014-2.348-13.656a2.36 2.36 0 0 1 .656-2.072l9.99-9.929.707-.703-.987-.146-13.697-2.027a2.295 2.295 0 0 1-1.722-1.27L39.963 15.27Z"/></g><defs><linearGradient id="b" x1="39.499" x2="39.499" y1="6.25" y2="65.75" gradientUnits="userSpaceOnUse"><stop stop-color="#EADFF1"/><stop offset="1" stop-color="#F7EAFF"/></linearGradient><filter id="a" width="77.416" height="75.5" x=".791" y=".25" color-interpolation-filters="sRGB" filterUnits="userSpaceOnUse"><feFlood flood-opacity="0" result="BackgroundImageFix"/><feColorMatrix in="SourceAlpha" result="hardAlpha" values="0 0 0 0 0 0 0 0 0 0 0 0 0 0 0 0 0 0 127 0"/><feOffset dy="2"/><feGaussianBlur stdDeviation="4"/><feComposite in2="hardAlpha" operator="out"/><feColorMatrix values="0 0 0 0 0.661917 0 0 0 0 0.246458 0 0 0 0 0.938889 0 0 0 1 0"/><feBlend in2="BackgroundImageFix" result="effect1_dropShadow_182_75"/><feBlend in="SourceGraphic" in2="effect1_dropShadow_182_75" result="shape"/></filter></defs></svg>