<svg xmlns="http://www.w3.org/2000/svg" fill="none" viewBox="0 0 61 56"><g filter="url(#a)"><path fill="url(#b)" fill-rule="evenodd" d="M8.006 8.089c0-1.117.898-2.023 2.005-2.023h40.105c1.108 0 2.005.906 2.005 2.023v30.333a2.014 2.014 0 0 1-2.005 2.022H35.907l-4.425 4.463c-.784.79-2.053.79-2.836 0l-4.426-4.463H10.01a2.014 2.014 0 0 1-2.005-2.022V8.089Zm4.01 2.022v26.288H25.05c.532 0 1.042.213 1.418.593l3.596 3.625 3.595-3.625c.376-.38.886-.593 1.418-.593H48.11V10.111H12.016Zm18.048 4.044c1.107 0 2.005.906 2.005 2.022v1.012a2.014 2.014 0 0 1-2.005 2.022 2.014 2.014 0 0 1-2.006-2.022v-1.012c0-1.116.898-2.022 2.006-2.022Zm0 7.078c1.107 0 2.005.905 2.005 2.022v9.1a2.014 2.014 0 0 1-2.005 2.022 2.014 2.014 0 0 1-2.006-2.022v-9.1c0-1.117.898-2.022 2.006-2.022Z" clip-rule="evenodd"/><path stroke="#FFF8F4" stroke-linecap="round" stroke-miterlimit="10" d="M35.907 39.944H35.7l-.147.148-4.425 4.463a1.494 1.494 0 0 1-2.126 0l-4.426-4.463-.147-.148H10.011a1.514 1.514 0 0 1-1.505-1.522V8.089c0-.845.678-1.523 1.505-1.523h40.105c.828 0 1.505.678 1.505 1.523v30.333c0 .844-.677 1.522-1.505 1.522H35.907ZM12.017 9.61h-.5v27.288H25.05c.397 0 .78.16 1.062.445l3.596 3.625.355.358.355-.358 3.595-3.625a1.497 1.497 0 0 1 1.063-.445H48.61V9.611H12.016Zm18.047 5.044c.827 0 1.505.678 1.505 1.522v1.012c0 .844-.678 1.522-1.505 1.522a1.514 1.514 0 0 1-1.506-1.522v-1.012c0-.844.678-1.522 1.506-1.522Zm0 7.078c.827 0 1.505.677 1.505 1.522v9.1c0 .845-.678 1.522-1.505 1.522a1.514 1.514 0 0 1-1.506-1.522v-9.1c0-.845.678-1.522 1.506-1.522Z"/></g><defs><linearGradient id="b" x1="30.064" x2="30.064" y1="6.066" y2="45.499" gradientUnits="userSpaceOnUse"><stop stop-color="#F1E5DF"/><stop offset="1" stop-color="#FFF0EA"/></linearGradient><filter id="a" width="60.115" height="55.433" x=".006" y=".066" color-interpolation-filters="sRGB" filterUnits="userSpaceOnUse"><feFlood flood-opacity="0" result="BackgroundImageFix"/><feColorMatrix in="SourceAlpha" result="hardAlpha" values="0 0 0 0 0 0 0 0 0 0 0 0 0 0 0 0 0 0 127 0"/><feOffset dy="2"/><feGaussianBlur stdDeviation="4"/><feComposite in2="hardAlpha" operator="out"/><feColorMatrix values="0 0 0 0 0.938889 0 0 0 0 0.465728 0 0 0 0 0.246458 0 0 0 1 0"/><feBlend in2="BackgroundImageFix" result="effect1_dropShadow_182_138"/><feBlend in="SourceGraphic" in2="effect1_dropShadow_182_138" result="shape"/></filter></defs></svg>