<svg xmlns="http://www.w3.org/2000/svg" fill="none" viewBox="0 0 141 29"><path fill="#F8DF00" stroke="#F8DF00" stroke-miterlimit="10" d="m18.06 9.671.115.239.261.04 7.45 1.125a.679.679 0 0 1 .54.477.739.739 0 0 1-.173.736l-5.419 5.497-.18.182.043.252 1.287 7.636a.73.73 0 0 1-.272.703.633.633 0 0 1-.691.05l-6.654-3.673-.242-.134-.241.134-6.652 3.673a.633.633 0 0 1-.692-.05l-.3.4.3-.4a.729.729 0 0 1-.271-.704l1.296-7.635.043-.252-.18-.183L2 12.29a.739.739 0 0 1-.173-.737.679.679 0 0 1 .54-.477l-.07-.466.07.466 7.49-1.125.264-.04.114-.241 3.295-6.966a.664.664 0 0 1 .594-.39c.244-.001.478.142.596.387l3.34 6.971Zm-3.477-4.134-.454-.947-.449.95-2.525 5.337a.67.67 0 0 1-.502.384l-5.764.865-.973.147.691.7 4.18 4.232c.16.162.237.4.196.638l-.988 5.82-.173 1.023.908-.502 5.088-2.81a.631.631 0 0 1 .615 0l5.093 2.812.907.501-.172-1.021-.982-5.824a.736.736 0 0 1 .196-.637l4.175-4.234.689-.7-.97-.146-5.725-.864a.67.67 0 0 1-.5-.38l-2.56-5.344ZM46.06 9.671l.115.239.262.04 7.45 1.125a.679.679 0 0 1 .538.477.739.739 0 0 1-.172.736l-5.419 5.497-.18.182.043.252 1.287 7.636a.73.73 0 0 1-.272.703.633.633 0 0 1-.691.05l-6.654-3.673-.241-.134-.242.134-6.652 3.673a.633.633 0 0 1-.692-.05l-.3.4.3-.4a.73.73 0 0 1-.271-.704l1.296-7.635.043-.252-.18-.183L30 12.29a.739.739 0 0 1-.173-.737.679.679 0 0 1 .54-.477l-.07-.466.07.466 7.49-1.125.264-.04.114-.241 3.295-6.966a.664.664 0 0 1 .594-.39c.244-.001.478.142.596.387l3.34 6.971Zm-3.477-4.134-.454-.947-.449.95-2.525 5.337a.67.67 0 0 1-.502.384l-5.764.865-.973.147.691.7 4.18 4.232c.16.162.237.4.197.638l-.989 5.82-.173 1.023.908-.502 5.088-2.81a.631.631 0 0 1 .615 0l5.093 2.812.907.501-.172-1.021-.982-5.824a.736.736 0 0 1 .196-.637l4.175-4.234.689-.7-.97-.146-5.725-.864a.67.67 0 0 1-.5-.38l-2.56-5.344ZM74.06 9.671l.115.239.261.04 7.45 1.125a.679.679 0 0 1 .54.477.739.739 0 0 1-.173.736l-5.419 5.497-.18.182.043.252 1.287 7.636a.73.73 0 0 1-.272.703.633.633 0 0 1-.691.05l-6.654-3.673-.242-.134-.241.134-6.652 3.673a.633.633 0 0 1-.692-.05l-.3.4.3-.4a.73.73 0 0 1-.271-.704l1.296-7.635.043-.252-.18-.183L58 12.29a.739.739 0 0 1-.173-.737.679.679 0 0 1 .54-.477l-.07-.466.07.466 7.49-1.125.264-.04.114-.241 3.295-6.966a.664.664 0 0 1 .594-.39c.244-.001.479.142.596.387l3.34 6.971Zm-3.477-4.134-.454-.947-.449.95-2.525 5.337a.67.67 0 0 1-.502.384l-5.764.865-.973.147.691.7 4.18 4.232c.16.162.237.4.197.638l-.989 5.82-.173 1.023.908-.502 5.088-2.81a.631.631 0 0 1 .615 0l5.093 2.812.907.501-.172-1.021-.982-5.824a.736.736 0 0 1 .196-.637l4.175-4.234.689-.7-.97-.146-5.725-.864a.67.67 0 0 1-.5-.38l-2.56-5.344ZM102.06 9.671l.115.239.262.04 7.45 1.125a.678.678 0 0 1 .538.477.737.737 0 0 1-.172.736l-5.419 5.497-.179.182.042.252 1.287 7.636a.727.727 0 0 1-.272.703.633.633 0 0 1-.691.05l-6.654-3.673-.242-.134-.241.134-6.652 3.673a.633.633 0 0 1-.692-.05l-.3.4.3-.4a.73.73 0 0 1-.271-.704l1.296-7.635.043-.252-.18-.183L86 12.29a.739.739 0 0 1-.173-.737.679.679 0 0 1 .54-.477l-.07-.466.07.466 7.49-1.125.264-.04.114-.241 3.295-6.966a.664.664 0 0 1 .594-.39c.244-.001.479.142.596.387l3.34 6.971Zm-3.477-4.134-.454-.947-.449.95-2.525 5.337a.67.67 0 0 1-.502.384l-5.764.865-.973.147.691.7 4.18 4.232c.16.162.237.4.197.638l-.989 5.82-.173 1.023.908-.502 5.088-2.81a.631.631 0 0 1 .615 0l5.093 2.812.907.501-.172-1.021-.982-5.824a.737.737 0 0 1 .196-.637l4.175-4.234.689-.7-.971-.146-5.724-.864a.671.671 0 0 1-.5-.38l-2.56-5.344ZM130.06 9.671l.115.239.262.04 7.45 1.125a.678.678 0 0 1 .538.477.737.737 0 0 1-.172.736l-5.419 5.497-.179.182.042.252 1.287 7.636a.727.727 0 0 1-.272.703.633.633 0 0 1-.691.05l-6.654-3.673-.241-.134-.242.134-6.652 3.673a.633.633 0 0 1-.692-.05l-.3.4.3-.4a.73.73 0 0 1-.271-.704l1.296-7.635.043-.252-.18-.183L114 12.29a.739.739 0 0 1-.173-.737.68.68 0 0 1 .54-.477l-.07-.466.07.466 7.49-1.125.264-.04.114-.241 3.295-6.966a.664.664 0 0 1 .594-.39c.244-.001.478.142.596.387l3.34 6.971Zm-3.477-4.134-.454-.947-.449.95-2.525 5.337a.669.669 0 0 1-.502.384l-5.764.865-.973.147.691.7 4.18 4.232c.16.162.237.4.196.638l-.988 5.82-.173 1.023.908-.502 5.088-2.81a.633.633 0 0 1 .615 0l5.093 2.812.907.501-.172-1.021-.982-5.824a.737.737 0 0 1 .196-.637l4.175-4.234.689-.7-.971-.146-5.724-.864a.671.671 0 0 1-.5-.38l-2.561-5.344Z"/></svg>