<svg aria-hidden="true" style="position: absolute; width: 0; height: 0; overflow: hidden;" version="1.1" xmlns="http://www.w3.org/2000/svg" xmlns:xlink="http://www.w3.org/1999/xlink">
<defs>
<symbol id="icon-caret-forward" viewBox="0 0 20 32">
<path fill="#fff" style="fill: var(--color1, #fff)" d="M4.583 30.391l13.735-12.133c0.222-0.196 0.4-0.439 0.521-0.711 0.116-0.255 0.184-0.553 0.184-0.867 0-0.628-0.271-1.193-0.703-1.584l-0.002-0.002-13.735-12.132c-1.312-1.159-3.339-0.199-3.339 1.58v24.272c0 1.778 2.027 2.738 3.337 1.577z"></path>
</symbol>
<symbol id="icon-comment" viewBox="0 0 35 32">
<path d="M3.907 4.222c0-0.695 0.556-1.259 1.241-1.259h24.815c0.685 0 1.241 0.564 1.241 1.259v18.889c0 0.696-0.556 1.26-1.241 1.26h-12.735l-5.942 3.015c-0.161 0.084-0.352 0.133-0.555 0.133-0.242 0-0.467-0.070-0.657-0.191l0.005 0.003c-0.356-0.228-0.588-0.621-0.588-1.068 0-0.001 0-0.002 0-0.003v0-1.889h-4.343c-0.685 0-1.241-0.564-1.241-1.26v-18.889zM6.388 5.482v16.37h4.343c0.685 0 1.241 0.564 1.241 1.259v1.111l4.408-2.237c0.172-0.088 0.362-0.133 0.555-0.133h11.787v-16.37h-22.333zM11.352 11.463c0.685 0 1.241 0.564 1.241 1.259v1.889c0 0.696-0.556 1.26-1.241 1.26s-1.241-0.564-1.241-1.26v-1.889c0-0.695 0.556-1.259 1.241-1.259zM17.555 11.463c0.685 0 1.241 0.564 1.241 1.259v1.889c0 0.696-0.556 1.26-1.241 1.26s-1.24-0.564-1.24-1.26v-1.889c0-0.695 0.556-1.259 1.24-1.259zM23.759 11.463c0.685 0 1.24 0.564 1.24 1.259v1.889c0 0.696-0.556 1.26-1.24 1.26s-1.241-0.564-1.241-1.26v-1.889c0-0.695 0.556-1.259 1.241-1.259z"></path>
<path fill="none" stroke="#fff8f4" style="stroke: var(--color2, #fff8f4)" stroke-linejoin="round" stroke-linecap="round" stroke-miterlimit="10" stroke-width="0.4444" d="M17.228 24.148c-0 0-0 0-0 0-0.037 0-0.071 0.009-0.102 0.025l0.001-0.001-5.942 3.015c-0.315 0.16-0.689 0.143-0.988-0.045-0.293-0.188-0.484-0.511-0.484-0.88 0-0.001 0-0.002 0-0.003v0-1.889c0-0.123-0.1-0.222-0.222-0.222v0h-4.342c-0.56 0-1.019-0.461-1.019-1.037v-18.889c0-0.576 0.459-1.037 1.019-1.037h24.815c0.56 0 1.019 0.461 1.019 1.037v18.889c0 0.576-0.459 1.037-1.019 1.037h-12.735zM6.388 5.26c-0.123 0-0.222 0.099-0.222 0.222v0 16.37c0 0.123 0.099 0.222 0.222 0.222v0h4.343c0.56 0 1.019 0.461 1.019 1.037v1.111c0 0.123 0.1 0.222 0.222 0.222 0.037 0 0.071-0.009 0.102-0.025l-0.001 0.001 4.408-2.237c0.132-0.069 0.288-0.109 0.454-0.109h11.787c0.123 0 0.222-0.099 0.222-0.222v0-16.37c0-0.123-0.099-0.222-0.222-0.222v0h-22.333zM11.352 11.685c0.56 0 1.019 0.461 1.019 1.037v1.889c0 0.576-0.459 1.037-1.019 1.037s-1.019-0.461-1.019-1.037v-1.889c0-0.576 0.459-1.037 1.019-1.037zM17.555 11.685c0.56 0 1.019 0.461 1.019 1.037v1.889c0 0.576-0.459 1.037-1.019 1.037s-1.018-0.461-1.018-1.037v-1.889c0-0.576 0.459-1.037 1.018-1.037zM23.759 11.685c0.559 0 1.018 0.461 1.018 1.037v1.889c0 0.576-0.459 1.037-1.018 1.037s-1.019-0.461-1.019-1.037v-1.889c0-0.576 0.459-1.037 1.019-1.037z"></path>
</symbol>
<symbol id="icon-flash-payment" viewBox="0 0 27 32">
<path d="M12.808 8.108c0.15-0.607-0.214-1.222-0.812-1.374s-1.205 0.217-1.354 0.824l-1.117 4.534c-0.15 0.607 0.214 1.222 0.812 1.374s1.205-0.218 1.354-0.825l1.116-4.533z"></path>
<path d="M8.933 2.733c-0.519 0.003-0.955 0.358-1.079 0.839l-0.002 0.008-3.35 13.034c-0.023 0.086-0.036 0.184-0.036 0.285 0 0.262 0.088 0.503 0.235 0.696l-0.002-0.003c0.205 0.268 0.524 0.44 0.883 0.44h3.057l-1.91 8.24c-0.019 0.078-0.030 0.168-0.030 0.261 0 0.428 0.237 0.802 0.586 0.996l0.006 0.003c0.152 0.084 0.333 0.133 0.526 0.133 0.324 0 0.615-0.139 0.817-0.361l0.001-0.001 14.516-15.867c0.185-0.203 0.299-0.474 0.299-0.772 0-0.163-0.034-0.319-0.096-0.46l0.003 0.007c-0.174-0.402-0.566-0.679-1.024-0.68h-5.269l1.328-5.392c0.021-0.083 0.033-0.177 0.033-0.275 0-0.263-0.089-0.506-0.238-0.7l0.002 0.003c-0.205-0.266-0.522-0.435-0.88-0.436h-8.376zM7.028 15.766l2.768-10.766h6.082l-1.328 5.392c-0.021 0.083-0.033 0.177-0.033 0.275 0 0.263 0.089 0.506 0.238 0.7l-0.002-0.003c0.205 0.266 0.522 0.435 0.88 0.436h4.14l-9.903 10.823 1.267-5.463c0.078-0.337 0-0.692-0.212-0.964-0.205-0.262-0.52-0.429-0.875-0.43h-3.021z"></path>
<path fill="none" stroke="#f4f9ff" style="stroke: var(--color3, #f4f9ff)" stroke-linejoin="miter" stroke-linecap="round" stroke-miterlimit="10" stroke-width="0.4" d="M8.835 18.078l0.057-0.245h-3.308c-0.295-0.001-0.557-0.141-0.723-0.359l-0.002-0.002c-0.12-0.157-0.192-0.356-0.192-0.572 0-0.084 0.011-0.165 0.031-0.243l-0.002 0.007 3.35-13.033c0.103-0.402 0.46-0.694 0.886-0.697h8.375c0.281 0 0.548 0.132 0.722 0.358v0c0.174 0.226 0.236 0.522 0.168 0.802l-1.389 5.64h5.525c0.376 0.002 0.698 0.229 0.838 0.553l0.002 0.006c0.146 0.342 0.080 0.738-0.169 1.010l-14.517 15.866c-0.166 0.183-0.405 0.297-0.67 0.297-0.158 0-0.306-0.040-0.435-0.111l0.005 0.002c-0.292-0.163-0.487-0.47-0.487-0.823 0-0.076 0.009-0.151 0.026-0.222l-0.001 0.006 1.91-8.24zM6.835 15.717l-0.064 0.25h3.279c0.279 0 0.544 0.13 0.718 0.353s0.239 0.516 0.174 0.795l-1.439 6.206 10.723-11.72h-4.593c-0.293-0.001-0.554-0.14-0.72-0.356l-0.002-0.002c-0.122-0.158-0.195-0.358-0.195-0.576 0-0.080 0.010-0.158 0.029-0.233l-0.001 0.007 1.39-5.64h-6.492l-0.039 0.15-2.767 10.767zM11.946 6.928c0.49 0.124 0.791 0.63 0.668 1.132l-1.117 4.534c-0.124 0.502-0.622 0.802-1.111 0.678s-0.791-0.63-0.668-1.133l1.117-4.533c0.124-0.502 0.622-0.802 1.111-0.678z"></path>
</symbol>
<symbol id="icon-icon-close" viewBox="0 0 32 32">
<path fill="#fff" style="fill: var(--color1, #fff)" d="M32 3.721l-3.721-3.721-12.279 12.279-12.279-12.279-3.721 3.721 12.279 12.279-12.279 12.279 3.721 3.721 12.279-12.279 12.279 12.279 3.721-3.721-12.279-12.279 12.279-12.279z"></path>
</symbol>
<symbol id="icon-icon-meny" viewBox="0 0 48 32">
<path fill="#fff" style="fill: var(--color1, #fff)" d="M0 5.333v-5.333h48v5.333h-48zM0 18.667h48v-5.333h-48v5.333zM0 32h48v-5.333h-48v5.333z"></path>
</symbol>
<symbol id="icon-star" viewBox="0 0 33 32">
<path d="M16.627 2.632c0.462 0 0.862 0.268 1.053 0.656l0.003 0.007 3.366 6.883 7.506 1.111c0.449 0.070 0.81 0.385 0.945 0.802l0.002 0.008c0.037 0.111 0.058 0.238 0.058 0.37 0 0.333-0.135 0.634-0.353 0.852v0l-5.46 5.427 1.296 7.539c0.011 0.062 0.018 0.133 0.018 0.206 0 0.394-0.19 0.744-0.483 0.963l-0.003 0.002c-0.19 0.142-0.43 0.227-0.689 0.227-0.203 0-0.393-0.052-0.559-0.143l0.006 0.003-6.704-3.626-6.702 3.626c-0.397 0.215-0.879 0.181-1.243-0.087-0.296-0.221-0.485-0.571-0.485-0.965 0-0.073 0.007-0.145 0.019-0.215l-0.001 0.007 1.305-7.537-5.467-5.427c-0.219-0.218-0.354-0.52-0.354-0.853 0-0.132 0.021-0.259 0.060-0.378l-0.002 0.009c0.138-0.426 0.499-0.741 0.942-0.81l0.007-0.001 7.547-1.11 3.319-6.877c0.192-0.396 0.591-0.665 1.052-0.668h0zM16.637 6.522l-2.544 5.27c-0.169 0.347-0.494 0.595-0.881 0.655l-0.007 0.001-5.807 0.855 4.211 4.179c0.219 0.218 0.354 0.52 0.354 0.853 0 0.073-0.007 0.145-0.019 0.214l0.001-0.007-0.995 5.746 5.126-2.774c0.16-0.088 0.35-0.14 0.553-0.14s0.393 0.052 0.559 0.143l-0.006-0.003 5.131 2.776-0.989-5.75c-0.011-0.062-0.018-0.133-0.018-0.205 0-0.333 0.135-0.634 0.353-0.852v0l4.206-4.181-5.767-0.853c-0.391-0.061-0.714-0.306-0.88-0.643l-0.003-0.007-2.58-5.276z"></path>
<path fill="none" stroke="#fbf4ff" style="stroke: var(--color4, #fbf4ff)" stroke-linejoin="miter" stroke-linecap="butt" stroke-miterlimit="10" stroke-width="0.4211" d="M20.86 10.269l0.048 0.099 0.109 0.017 7.507 1.11c0.369 0.058 0.665 0.317 0.776 0.66l0.002 0.007c0.030 0.091 0.048 0.196 0.048 0.305 0 0.275-0.111 0.523-0.291 0.703v0l-5.537 5.504 0.019 0.108 1.296 7.539c0.009 0.051 0.015 0.11 0.015 0.17 0 0.325-0.156 0.613-0.398 0.794l-0.003 0.002c-0.156 0.116-0.352 0.186-0.565 0.186-0.166 0-0.322-0.043-0.457-0.117l0.005 0.002-6.803-3.681-6.803 3.68c-0.131 0.072-0.287 0.115-0.453 0.115-0.213 0-0.409-0.070-0.568-0.188l0.002 0.002c-0.244-0.183-0.4-0.471-0.4-0.795 0-0.061 0.005-0.12 0.016-0.178l-0.001 0.006 1.325-7.645-0.078-0.077-5.469-5.426c-0.18-0.18-0.291-0.429-0.291-0.704 0-0.109 0.018-0.214 0.050-0.312l-0.002 0.007c0.113-0.35 0.41-0.609 0.773-0.666l0.005-0.001 7.657-1.127 0.048-0.101 3.32-6.877c0.158-0.325 0.484-0.546 0.863-0.549h0c0.379 0 0.707 0.22 0.864 0.539l0.003 0.006 3.366 6.883zM16.827 6.429l-0.19-0.389-0.189 0.39-2.544 5.27c-0.138 0.285-0.405 0.489-0.722 0.538l-0.005 0.001-6.224 0.917 4.51 4.475c0.18 0.18 0.291 0.428 0.291 0.703 0 0.060-0.005 0.12-0.016 0.177l0.001-0.006-1.069 6.174 5.508-2.981c0.131-0.072 0.287-0.115 0.453-0.115s0.322 0.043 0.458 0.117l-0.005-0.002 5.513 2.982-0.073-0.427-0.989-5.75c-0.009-0.051-0.015-0.11-0.015-0.17 0-0.274 0.111-0.523 0.291-0.702v0l4.504-4.477-6.183-0.915c-0.321-0.050-0.586-0.252-0.723-0.529l-0.003-0.006-2.58-5.276z"></path>
</symbol>
<symbol id="icon-stars" viewBox="0 0 156 32">
<path fill="#f8df00" style="fill: var(--color5, #f8df00); stroke: var(--color5, #f8df00)" stroke="#f8df00" stroke-linejoin="miter" stroke-linecap="butt" stroke-miterlimit="10" stroke-width="1.1034" d="M19.928 10.671l0.127 0.264 0.288 0.044 8.221 1.241c0.285 0.049 0.513 0.253 0.594 0.521l0.001 0.005c0.024 0.073 0.038 0.158 0.038 0.246 0 0.22-0.087 0.42-0.229 0.567l0-0-6.178 6.266 0.047 0.278 1.42 8.426c0.008 0.042 0.012 0.090 0.012 0.139 0 0.258-0.122 0.488-0.31 0.635l-0.002 0.001c-0.116 0.089-0.264 0.143-0.423 0.143-0.124 0-0.241-0.033-0.343-0.090l0.003 0.002-7.609-4.201-0.266 0.148-7.34 4.053c-0.098 0.055-0.215 0.088-0.34 0.088-0.16 0-0.308-0.054-0.426-0.145l0.002 0.001c-0.19-0.149-0.311-0.378-0.311-0.636 0-0.050 0.005-0.099 0.013-0.146l-0.001 0.005 1.478-8.703-0.199-0.202-5.99-6.062c-0.142-0.146-0.229-0.346-0.229-0.567 0-0.088 0.014-0.173 0.040-0.252l-0.002 0.006c0.083-0.273 0.31-0.478 0.591-0.526l0.004-0.001 8.556-1.286 3.762-7.953c0.116-0.252 0.365-0.425 0.655-0.43h0.001c0.269-0.001 0.527 0.157 0.658 0.427l3.686 7.692zM16.092 6.11l-0.501-1.045-0.495 1.048-2.786 5.889c-0.103 0.222-0.306 0.382-0.55 0.423l-0.004 0.001-7.434 1.117 5.375 5.442c0.177 0.179 0.262 0.441 0.216 0.704l-1.090 6.422-0.191 1.129 6.616-3.655c0.098-0.056 0.215-0.088 0.339-0.088s0.242 0.033 0.343 0.090l-0.003-0.002 6.621 3.656-0.19-1.127-1.084-6.426c-0.008-0.042-0.012-0.090-0.012-0.139 0-0.219 0.087-0.418 0.228-0.565l-0 0 5.367-5.444-7.388-1.114c-0.246-0.041-0.448-0.2-0.55-0.415l-0.002-0.005-2.825-5.897zM50.825 10.671l0.127 0.264 0.289 0.044 8.221 1.241c0.285 0.049 0.511 0.254 0.592 0.521l0.001 0.005c0.024 0.074 0.038 0.159 0.038 0.247 0 0.22-0.087 0.419-0.228 0.566l0-0-6.178 6.266 0.047 0.278 1.42 8.426c0.008 0.042 0.012 0.090 0.012 0.139 0 0.258-0.121 0.488-0.31 0.635l-0.002 0.001c-0.116 0.089-0.264 0.143-0.423 0.143-0.124 0-0.241-0.033-0.343-0.090l0.004 0.002-7.608-4.201-0.267 0.148-7.34 4.053c-0.098 0.055-0.215 0.088-0.34 0.088-0.16 0-0.308-0.054-0.426-0.145l0.002 0.001c-0.19-0.149-0.311-0.378-0.311-0.636 0-0.050 0.005-0.098 0.013-0.146l-0.001 0.005 1.478-8.703-0.199-0.202-5.99-6.062c-0.142-0.146-0.229-0.346-0.229-0.567 0-0.088 0.014-0.173 0.040-0.252l-0.002 0.006c0.083-0.273 0.31-0.478 0.591-0.526l0.004-0.001 8.556-1.286 3.762-7.953c0.116-0.252 0.365-0.425 0.655-0.43h0.001c0.269-0.001 0.527 0.157 0.658 0.427l3.686 7.692zM46.988 6.11l-0.501-1.045-0.495 1.048-2.786 5.889c-0.103 0.222-0.306 0.382-0.55 0.423l-0.004 0.001-7.434 1.117 5.375 5.442c0.177 0.179 0.262 0.441 0.217 0.704l-1.091 6.422-0.191 1.129 6.616-3.655c0.098-0.056 0.215-0.088 0.339-0.088s0.242 0.033 0.343 0.090l-0.003-0.002 6.621 3.656-0.19-1.127-1.084-6.426c-0.008-0.042-0.012-0.090-0.012-0.139 0-0.219 0.087-0.418 0.228-0.565l-0 0 5.367-5.444-7.388-1.114c-0.246-0.041-0.448-0.2-0.55-0.415l-0.002-0.005-2.825-5.897zM81.721 10.671l0.127 0.264 0.288 0.044 8.221 1.241c0.285 0.049 0.513 0.253 0.594 0.521l0.001 0.005c0.024 0.073 0.038 0.158 0.038 0.246 0 0.22-0.087 0.42-0.229 0.567l0-0-6.178 6.266 0.047 0.278 1.42 8.426c0.008 0.042 0.012 0.090 0.012 0.139 0 0.258-0.121 0.488-0.31 0.635l-0.002 0.001c-0.116 0.089-0.263 0.143-0.423 0.143-0.124 0-0.241-0.033-0.343-0.090l0.004 0.002-7.609-4.201-0.266 0.148-7.34 4.053c-0.098 0.055-0.215 0.088-0.34 0.088-0.16 0-0.308-0.054-0.426-0.145l0.002 0.001c-0.19-0.149-0.311-0.378-0.311-0.636 0-0.050 0.004-0.098 0.013-0.146l-0.001 0.005 1.478-8.703-0.199-0.202-5.99-6.062c-0.142-0.146-0.229-0.346-0.229-0.567 0-0.088 0.014-0.173 0.040-0.252l-0.002 0.006c0.083-0.273 0.31-0.478 0.591-0.526l0.004-0.001 8.556-1.286 3.762-7.953c0.116-0.252 0.365-0.425 0.655-0.43h0.001c0.269-0.001 0.529 0.157 0.658 0.427l3.686 7.692zM77.885 6.11l-0.501-1.045-0.495 1.048-2.786 5.889c-0.103 0.222-0.306 0.382-0.55 0.423l-0.004 0.001-7.434 1.117 5.375 5.442c0.177 0.179 0.262 0.441 0.217 0.704l-1.091 6.422-0.191 1.129 6.616-3.655c0.098-0.056 0.215-0.088 0.339-0.088s0.242 0.033 0.343 0.090l-0.003-0.002 6.621 3.656-0.19-1.127-1.084-6.426c-0.008-0.042-0.012-0.090-0.012-0.139 0-0.219 0.087-0.418 0.228-0.565l-0 0 5.367-5.444-7.388-1.114c-0.246-0.041-0.448-0.2-0.55-0.415l-0.002-0.005-2.825-5.897zM112.618 10.671l0.127 0.264 0.289 0.044 8.221 1.241c0.285 0.049 0.511 0.253 0.592 0.521l0.001 0.005c0.024 0.074 0.038 0.159 0.038 0.247 0 0.22-0.087 0.419-0.228 0.565l0-0-6.177 6.266 0.046 0.278 1.42 8.426c0.008 0.042 0.012 0.091 0.012 0.14 0 0.258-0.122 0.487-0.311 0.634l-0.002 0.001c-0.116 0.089-0.263 0.143-0.423 0.143-0.124 0-0.241-0.033-0.343-0.090l0.004 0.002-7.609-4.201-0.266 0.148-7.34 4.053c-0.098 0.055-0.215 0.088-0.34 0.088-0.16 0-0.308-0.054-0.426-0.145l0.002 0.001c-0.19-0.149-0.311-0.378-0.311-0.636 0-0.050 0.004-0.098 0.013-0.146l-0.001 0.005 1.478-8.703-0.199-0.202-5.99-6.062c-0.142-0.146-0.229-0.346-0.229-0.567 0-0.088 0.014-0.173 0.040-0.252l-0.002 0.006c0.083-0.273 0.31-0.478 0.591-0.526l0.004-0.001 8.556-1.286 3.762-7.953c0.116-0.252 0.365-0.425 0.655-0.43h0.001c0.269-0.001 0.529 0.157 0.658 0.427l3.686 7.692zM108.781 6.11l-0.501-1.045-0.495 1.048-2.786 5.889c-0.103 0.222-0.306 0.382-0.55 0.423l-0.004 0.001-7.434 1.117 5.375 5.442c0.177 0.179 0.262 0.441 0.217 0.704l-1.091 6.422-0.191 1.129 6.616-3.655c0.098-0.056 0.215-0.088 0.339-0.088s0.242 0.033 0.343 0.090l-0.003-0.002 6.621 3.656-0.19-1.127-1.084-6.426c-0.008-0.042-0.012-0.089-0.012-0.138 0-0.22 0.087-0.419 0.228-0.565l-0 0 5.367-5.444-7.388-1.114c-0.246-0.042-0.448-0.2-0.55-0.415l-0.002-0.005-2.825-5.897zM143.514 10.671l0.127 0.264 0.289 0.044 8.221 1.241c0.285 0.049 0.511 0.253 0.592 0.521l0.001 0.005c0.024 0.074 0.038 0.159 0.038 0.247 0 0.22-0.087 0.419-0.228 0.565l0-0-6.177 6.266 0.046 0.278 1.42 8.426c0.008 0.042 0.012 0.091 0.012 0.14 0 0.258-0.122 0.487-0.311 0.634l-0.002 0.001c-0.116 0.089-0.263 0.143-0.423 0.143-0.124 0-0.241-0.033-0.343-0.090l0.004 0.002-7.608-4.201-0.267 0.148-7.34 4.053c-0.098 0.055-0.215 0.088-0.34 0.088-0.16 0-0.308-0.054-0.426-0.145l0.002 0.001c-0.19-0.149-0.311-0.378-0.311-0.636 0-0.050 0.005-0.098 0.013-0.146l-0.001 0.005 1.478-8.703-0.199-0.202-5.99-6.062c-0.142-0.146-0.229-0.346-0.229-0.567 0-0.088 0.014-0.173 0.040-0.252l-0.002 0.006c0.083-0.273 0.311-0.477 0.591-0.526l0.004-0.001 8.556-1.286 3.762-7.953c0.116-0.252 0.365-0.425 0.655-0.43h0.001c0.269-0.001 0.527 0.157 0.658 0.427l3.686 7.692zM139.678 6.11l-0.501-1.045-0.495 1.048-2.786 5.889c-0.102 0.222-0.306 0.382-0.55 0.423l-0.004 0.001-7.434 1.117 5.375 5.442c0.177 0.179 0.262 0.441 0.216 0.704l-1.090 6.422-0.191 1.129 6.616-3.655c0.098-0.055 0.215-0.088 0.339-0.088s0.242 0.033 0.343 0.090l-0.004-0.002 6.621 3.656-0.19-1.127-1.084-6.426c-0.008-0.042-0.012-0.089-0.012-0.138 0-0.22 0.087-0.419 0.228-0.565l-0 0 5.367-5.444-7.388-1.114c-0.246-0.042-0.448-0.2-0.55-0.415l-0.002-0.005-2.826-5.897z"></path>
</symbol>
<symbol id="icon-tips-one" viewBox="0 0 35 32">
<path d="M4.575 4.622c0-0.638 0.513-1.156 1.146-1.156h22.917c0.633 0 1.146 0.518 1.146 1.156v17.333c0 0.001 0 0.003 0 0.005 0 0.634-0.512 1.148-1.145 1.151h-8.12l-2.529 2.55c-0.448 0.451-1.173 0.451-1.621 0l-2.529-2.55h-8.12c-0.633-0.003-1.146-0.517-1.146-1.151 0-0.002 0-0.003 0-0.005v0-17.333zM6.866 5.778v15.022h7.448c0.304 0 0.595 0.122 0.81 0.339l2.055 2.071 2.054-2.071c0.215-0.217 0.506-0.339 0.81-0.339h7.447v-15.022h-20.625zM17.179 8.089c0.633 0 1.146 0.518 1.146 1.155v0.578c0 0.001 0 0.003 0 0.005 0 0.634-0.512 1.148-1.145 1.151h-0c-0.634-0.003-1.146-0.517-1.146-1.151 0-0.002 0-0.003 0-0.005v0-0.578c0-0.638 0.513-1.155 1.146-1.155zM17.179 12.133c0.633 0 1.146 0.517 1.146 1.155v5.2c0 0.001 0 0.003 0 0.005 0 0.634-0.512 1.148-1.145 1.151h-0c-0.634-0.003-1.146-0.517-1.146-1.151 0-0.002 0-0.003 0-0.005v0-5.2c0-0.638 0.513-1.155 1.146-1.155z"></path>
<path fill="none" stroke="#fff8f4" style="stroke: var(--color2, #fff8f4)" stroke-linejoin="miter" stroke-linecap="round" stroke-miterlimit="10" stroke-width="0.5714" d="M20.518 22.825h-0.118l-0.084 0.085-2.529 2.55c-0.155 0.157-0.37 0.254-0.607 0.254s-0.453-0.097-0.607-0.254l-0-0-2.613-2.635h-8.239c-0.476-0.003-0.86-0.389-0.86-0.865 0-0.002 0-0.003 0-0.005v0-17.333c0-0.483 0.387-0.87 0.86-0.87h22.917c0.473 0 0.86 0.387 0.86 0.87v17.333c0 0.482-0.387 0.87-0.86 0.87h-8.119zM6.867 5.491h-0.286v15.593h7.733c0.227 0 0.446 0.091 0.607 0.254l2.258 2.276 2.257-2.276c0.155-0.157 0.37-0.254 0.607-0.254h7.734v-15.593h-20.911zM17.179 8.374c0.473 0 0.86 0.387 0.86 0.87v0.578c0 0.482-0.387 0.87-0.86 0.87-0.476-0.003-0.861-0.389-0.861-0.865 0-0.002 0-0.003 0-0.005v0-0.578c0-0.482 0.387-0.87 0.861-0.87zM17.179 12.418c0.473 0 0.86 0.387 0.86 0.87v5.2c0 0.483-0.387 0.87-0.86 0.87-0.476-0.003-0.861-0.389-0.861-0.865 0-0.002 0-0.003 0-0.005v0-5.2c0-0.483 0.387-0.87 0.861-0.87z"></path>
</symbol>
<symbol id="icon-upload-logs" viewBox="0 0 27 32">
<path d="M3.35 3.866c0-0.626 0.5-1.133 1.117-1.133h17.866c0.617 0 1.117 0.508 1.117 1.133v11.334c0 0.626-0.5 1.133-1.117 1.133s-1.116-0.507-1.116-1.133v-10.2h-15.634v20.4h7.817c0.617 0 1.117 0.507 1.117 1.133s-0.5 1.133-1.117 1.133h-8.933c-0.617 0-1.117-0.507-1.117-1.133v-22.667zM7.817 10.666c0-0.626 0.5-1.133 1.116-1.133h8.934c0.616 0 1.116 0.508 1.116 1.133s-0.5 1.134-1.116 1.134h-8.934c-0.616 0-1.116-0.508-1.116-1.134zM7.817 15.2c0-0.626 0.5-1.134 1.116-1.134h4.467c0.617 0 1.117 0.508 1.117 1.134s-0.5 1.133-1.117 1.133h-4.467c-0.616 0-1.116-0.507-1.116-1.133zM19.821 17.466c0.296 0 0.58 0.12 0.79 0.332l2.512 2.55c0.202 0.206 0.327 0.489 0.327 0.801s-0.125 0.595-0.327 0.802l0-0c-0.201 0.205-0.48 0.332-0.79 0.332s-0.589-0.127-0.789-0.332l-0-0-0.606-0.615v5.197c0 0.626-0.5 1.133-1.117 1.133s-1.117-0.507-1.117-1.133v-5.197l-0.606 0.615c-0.201 0.205-0.48 0.332-0.79 0.332s-0.589-0.127-0.789-0.332l-0-0c-0.202-0.206-0.327-0.489-0.327-0.801s0.125-0.595 0.327-0.802l-0 0 2.512-2.55c0.201-0.205 0.48-0.332 0.79-0.332h0z"></path>
<path fill="none" stroke="#fff4fa" style="stroke: var(--color6, #fff4fa)" stroke-linejoin="miter" stroke-linecap="round" stroke-miterlimit="10" stroke-width="0.4" d="M21.417 5v-0.2h-16.034v20.8h8.017c0.504 0 0.917 0.415 0.917 0.933s-0.413 0.933-0.917 0.933h-8.933c-0.504 0-0.917-0.415-0.917-0.933v-22.667c0-0.518 0.413-0.933 0.917-0.933h17.866c0.504 0 0.917 0.415 0.917 0.933v11.334c0 0.518-0.413 0.933-0.917 0.933s-0.916-0.415-0.916-0.933v-10.2zM21.080 21.196l-0.342-0.348v5.685c0 0.518-0.413 0.933-0.917 0.933s-0.917-0.415-0.917-0.933v-5.685l-0.342 0.348-0.606 0.615c-0.165 0.168-0.394 0.272-0.647 0.272s-0.483-0.104-0.647-0.272l-0-0c-0.167-0.17-0.27-0.404-0.27-0.661s0.103-0.491 0.27-0.661l-0 0 2.512-2.55c0.165-0.168 0.394-0.272 0.647-0.272h0c0.253 0 0.483 0.104 0.647 0.272l0 0 2.512 2.55c0.167 0.17 0.27 0.404 0.27 0.661s-0.103 0.491-0.27 0.661l0-0c-0.165 0.168-0.394 0.272-0.647 0.272s-0.483-0.104-0.647-0.272l-0-0-0.606-0.615zM8.017 10.666c0-0.518 0.413-0.933 0.916-0.933h8.934c0.503 0 0.916 0.415 0.916 0.933s-0.413 0.934-0.916 0.934h-8.934c-0.503 0-0.916-0.415-0.916-0.934zM8.017 15.2c0-0.518 0.413-0.934 0.916-0.934h4.467c0.504 0 0.917 0.415 0.917 0.934s-0.413 0.933-0.917 0.933h-4.467c-0.503 0-0.916-0.415-0.916-0.933z"></path>
</symbol>
</defs>
</svg>
