<svg xmlns="http://www.w3.org/2000/svg" fill="none" viewBox="0 0 67 80"><g filter="url(#a)"><path fill="url(#b)" fill-rule="evenodd" d="M8.375 9.666c0-1.564 1.25-2.833 2.792-2.833h44.666c1.542 0 2.792 1.269 2.792 2.833V38c0 1.565-1.25 2.833-2.792 2.833-1.541 0-2.791-1.268-2.791-2.833V12.5H13.958v51H33.5c1.542 0 2.792 1.268 2.792 2.833 0 1.565-1.25 2.833-2.792 2.833H11.167c-1.542 0-2.792-1.268-2.792-2.833V9.666Zm11.167 17c0-1.564 1.25-2.833 2.791-2.833h22.334c1.541 0 2.791 1.269 2.791 2.833 0 1.565-1.25 2.834-2.791 2.834H22.333c-1.541 0-2.791-1.269-2.791-2.834Zm0 11.334c0-1.565 1.25-2.834 2.791-2.834H33.5c1.542 0 2.792 1.269 2.792 2.834 0 1.565-1.25 2.833-2.792 2.833H22.333c-1.541 0-2.791-1.268-2.791-2.833Zm30.01 5.666c.74 0 1.45.299 1.974.83l6.281 6.375a2.863 2.863 0 0 1 0 4.007 2.763 2.763 0 0 1-3.948 0l-1.515-1.538v12.993c0 1.565-1.25 2.833-2.792 2.833-1.542 0-2.792-1.268-2.792-2.833V53.34l-1.515 1.538a2.763 2.763 0 0 1-3.948 0 2.863 2.863 0 0 1 0-4.007l6.281-6.375a2.771 2.771 0 0 1 1.974-.83Z" clip-rule="evenodd"/><path stroke="#FFF4FA" stroke-linecap="round" stroke-miterlimit="10" d="M53.542 12.5V12H13.458v52H33.5c1.259 0 2.292 1.037 2.292 2.333 0 1.296-1.033 2.333-2.292 2.333H11.167c-1.259 0-2.292-1.037-2.292-2.333V9.666c0-1.295 1.033-2.333 2.292-2.333h44.666c1.259 0 2.292 1.038 2.292 2.333V38c0 1.295-1.033 2.333-2.292 2.333-1.258 0-2.291-1.038-2.291-2.333V12.5ZM52.7 52.99l-.856-.87V66.333c0 1.296-1.033 2.333-2.292 2.333s-2.292-1.037-2.292-2.333V52.12l-.856.87-1.515 1.537a2.263 2.263 0 0 1-3.236 0 2.363 2.363 0 0 1 0-3.305l6.281-6.375a2.271 2.271 0 0 1 1.618-.68 2.27 2.27 0 0 1 1.618.68l6.281 6.375a2.363 2.363 0 0 1 0 3.305 2.263 2.263 0 0 1-3.236 0L52.7 52.99ZM20.042 26.665c0-1.295 1.033-2.333 2.291-2.333h22.334c1.258 0 2.291 1.038 2.291 2.333 0 1.296-1.033 2.334-2.291 2.334H22.333c-1.258 0-2.291-1.038-2.291-2.334Zm0 11.334c0-1.296 1.033-2.334 2.291-2.334H33.5c1.259 0 2.292 1.038 2.292 2.334 0 1.295-1.033 2.333-2.292 2.333H22.333c-1.258 0-2.291-1.038-2.291-2.333Z"/></g><defs><linearGradient id="b" x1="33.5" x2="33.5" y1="6.833" y2="69.166" gradientUnits="userSpaceOnUse"><stop stop-color="#F1DFE8"/><stop offset="1" stop-color="#FFEAF4"/></linearGradient><filter id="a" width="66.25" height="78.333" x=".375" y=".833" color-interpolation-filters="sRGB" filterUnits="userSpaceOnUse"><feFlood flood-opacity="0" result="BackgroundImageFix"/><feColorMatrix in="SourceAlpha" result="hardAlpha" values="0 0 0 0 0 0 0 0 0 0 0 0 0 0 0 0 0 0 127 0"/><feOffset dy="2"/><feGaussianBlur stdDeviation="4"/><feComposite in2="hardAlpha" operator="out"/><feColorMatrix values="0 0 0 0 0.938889 0 0 0 0 0.246458 0 0 0 0 0.581133 0 0 0 1 0"/><feBlend in2="BackgroundImageFix" result="effect1_dropShadow_182_78"/><feBlend in="SourceGraphic" in2="effect1_dropShadow_182_78" result="shape"/></filter></defs></svg>